
<svg xmlns="http://www.w3.org/2000/svg" xmlns:xlink="http://www.w3.org/1999/xlink" viewBox="0 0 375 667" width="375" height="667" fill="none">
  <rect width="375" height="667" fill="#f5f5f5"></rect>
  <g opacity="100%">
    <rect x="0" y="0" width="375" height="60" fill="#1a3c7b"></rect>
    <rect x="0" y="60" width="375" height="0" fill="#e5e7eb"></rect>
  </g>
  <svg xmlns="http://www.w3.org/2000/svg" viewBox="0 0 448 512" width="18" height="18" fill="#fff" x="15" y="20" opacity="100%">
    <path d="M16 132h416c8.837 0 16-7.163 16-16V76c0-8.837-7.163-16-16-16H16C7.163 60 0 67.163 0 76v40c0 8.837 7.163 16 16 16zm0 160h416c8.837 0 16-7.163 16-16v-40c0-8.837-7.163-16-16-16H16c-8.837 0-16 7.163-16 16v40c0 8.837 7.163 16 16 16zm0 160h416c8.837 0 16-7.163 16-16v-40c0-8.837-7.163-16-16-16H16c-8.837 0-16 7.163-16 16v40c0 8.837 7.163 16 16 16z"></path>
  </svg>
  <g opacity="100%">
    <text x="49" y="35.5" font-family="Poppins" font-size="18" fill="#fff" letter-spacing="0" font-weight="700" font-style="normal">Election Manager</text>
  </g>
  <g opacity="100%">
    <text x="15" y="99.5" font-family="Poppins" font-size="24" fill="#2e7d32" letter-spacing="0" font-weight="700" font-style="normal">Ajouter un Bureau de Vote</text>
  </g>
  <g opacity="100%">
    <text x="15" y="138" font-family="Poppins" font-size="14" fill="#1a3c7b" letter-spacing="0" font-weight="600" font-style="normal">ID du bureau</text>
  </g>
  <g opacity="100%">
    <rect filter="url(#filter_dshadow_6_0_4_0000001a)" x="15" y="147" width="344" height="36" fill="#fff" rx="12" stroke="#e5e7eb" stroke-width="0"></rect>
    <text x="23" y="170" font-family="Poppins" font-size="14" fill="#94a3b8" letter-spacing="0" font-weight="normal" font-style="normal">
      <tspan></tspan>
    </text>
  </g>
  <g opacity="100%">
    <text x="15" y="214" font-family="Poppins" font-size="14" fill="#1a3c7b" letter-spacing="0" font-weight="600" font-style="normal">Adresse</text>
  </g>
  <g opacity="100%">
    <rect filter="url(#filter_dshadow_6_0_4_0000001a)" x="15" y="223" width="344" height="36" fill="#fff" rx="12" stroke="#e5e7eb" stroke-width="0"></rect>
    <text x="23" y="246" font-family="Poppins" font-size="14" fill="#94a3b8" letter-spacing="0" font-weight="normal" font-style="normal">
      <tspan></tspan>
    </text>
  </g>
  <g opacity="100%">
    <text x="15" y="290" font-family="Poppins" font-size="14" fill="#1a3c7b" letter-spacing="0" font-weight="600" font-style="normal">Capacité</text>
  </g>
  <g opacity="100%">
    <rect filter="url(#filter_dshadow_6_0_4_0000001a)" x="15" y="299" width="344" height="36" fill="#fff" rx="12" stroke="#e5e7eb" stroke-width="0"></rect>
    <text x="23" y="322" font-family="Poppins" font-size="14" fill="#94a3b8" letter-spacing="0" font-weight="normal" font-style="normal">
      <tspan></tspan>
    </text>
    <svg xmlns="http://www.w3.org/2000/svg" height="14" width="14" viewBox="0 0 24 24" fill="#94a3b8" x="337" y="310">
      <path d="M0 0h24v24H0z" fill="none"></path>
      <path d="M12 5.83 15.17 9l1.41-1.41L12 3 7.41 7.59 8.83 9 12 5.83zm0 12.34L8.83 15l-1.41 1.41L12 21l4.59-4.59L15.17 15 12 18.17z"></path>
    </svg>
  </g>
  <g opacity="100%">
    <rect x="15" y="351" width="344" height="52" fill="#2e7d32" stroke="#e5e7eb" stroke-width="0" rx="12"></rect>
    <text x="115.5" y="383.5" font-family="Poppins" font-size="18" fill="#fff" letter-spacing="0" font-weight="700" font-style="normal">
      <tspan>Créer le bureau</tspan>
    </text>
  </g>
  <g opacity="100%">
    <rect x="0" y="607" width="375" height="60" fill="#1a3c7b"></rect>
    <rect x="0" y="607" width="375" height="0" fill="#e5e7eb"></rect>
  </g>
  <svg xmlns="http://www.w3.org/2000/svg" viewBox="0 0 576 512" width="23" height="23" fill="#fff" x="48" y="625.5" opacity="100%">
    <path d="M280.37 148.26L96 300.11V464a16 16 0 0 0 16 16l112.06-.29a16 16 0 0 0 15.92-16V368a16 16 0 0 1 16-16h64a16 16 0 0 1 16 16v95.64a16 16 0 0 0 16 16.05L464 480a16 16 0 0 0 16-16V300L295.67 148.26a12.19 12.19 0 0 0-15.3 0zM571.6 251.47L488 182.56V44.05a12 12 0 0 0-12-12h-56a12 12 0 0 0-12 12v72.61L318.47 43a48 48 0 0 0-61 0L4.34 251.47a12 12 0 0 0-1.6 16.9l25.5 31A12 12 0 0 0 45.15 301l235.22-193.74a12.19 12.19 0 0 1 15.3 0L530.9 301a12 12 0 0 0 16.9-1.6l25.5-31a12 12 0 0 0-1.7-16.93z"></path>
  </svg>
  <svg xmlns="http://www.w3.org/2000/svg" viewBox="0 0 512 512" width="20" height="20" fill="#fff" x="135" y="627" opacity="100%">
    <path d="M332.8 320h38.4c6.4 0 12.8-6.4 12.8-12.8V172.8c0-6.4-6.4-12.8-12.8-12.8h-38.4c-6.4 0-12.8 6.4-12.8 12.8v134.4c0 6.4 6.4 12.8 12.8 12.8zm96 0h38.4c6.4 0 12.8-6.4 12.8-12.8V76.8c0-6.4-6.4-12.8-12.8-12.8h-38.4c-6.4 0-12.8 6.4-12.8 12.8v230.4c0 6.4 6.4 12.8 12.8 12.8zm-288 0h38.4c6.4 0 12.8-6.4 12.8-12.8v-70.4c0-6.4-6.4-12.8-12.8-12.8h-38.4c-6.4 0-12.8 6.4-12.8 12.8v70.4c0 6.4 6.4 12.8 12.8 12.8zm96 0h38.4c6.4 0 12.8-6.4 12.8-12.8V108.8c0-6.4-6.4-12.8-12.8-12.8h-38.4c-6.4 0-12.8 6.4-12.8 12.8v198.4c0 6.4 6.4 12.8 12.8 12.8zM496 384H64V80c0-8.84-7.16-16-16-16H16C7.16 64 0 71.16 0 80v336c0 17.67 14.33 32 32 32h464c8.84 0 16-7.16 16-16v-32c0-8.84-7.16-16-16-16z"></path>
  </svg>
  <svg xmlns="http://www.w3.org/2000/svg" viewBox="0 0 640 512" width="25" height="25" fill="#fff" x="219" y="624.5" opacity="100%">
    <path d="M512.1 191l-8.2 14.3c-3 5.3-9.4 7.5-15.1 5.4-11.8-4.4-22.6-10.7-32.1-18.6-4.6-3.8-5.8-10.5-2.8-15.7l8.2-14.3c-6.9-8-12.3-17.3-15.9-27.4h-16.5c-6 0-11.2-4.3-12.2-10.3-2-12-2.1-24.6 0-37.1 1-6 6.2-10.4 12.2-10.4h16.5c3.6-10.1 9-19.4 15.9-27.4l-8.2-14.3c-3-5.2-1.9-11.9 2.8-15.7 9.5-7.9 20.4-14.2 32.1-18.6 5.7-2.1 12.1.1 15.1 5.4l8.2 14.3c10.5-1.9 21.2-1.9 31.7 0L552 6.3c3-5.3 9.4-7.5 15.1-5.4 11.8 4.4 22.6 10.7 32.1 18.6 4.6 3.8 5.8 10.5 2.8 15.7l-8.2 14.3c6.9 8 12.3 17.3 15.9 27.4h16.5c6 0 11.2 4.3 12.2 10.3 2 12 2.1 24.6 0 37.1-1 6-6.2 10.4-12.2 10.4h-16.5c-3.6 10.1-9 19.4-15.9 27.4l8.2 14.3c3 5.2 1.9 11.9-2.8 15.7-9.5 7.9-20.4 14.2-32.1 18.6-5.7 2.1-12.1-.1-15.1-5.4l-8.2-14.3c-10.4 1.9-21.2 1.9-31.7 0zm-10.5-58.8c38.5 29.6 82.4-14.3 52.8-52.8-38.5-29.7-82.4 14.3-52.8 52.8zM386.3 286.1l33.7 16.8c10.1 5.8 14.5 18.1 10.5 29.1-8.9 24.2-26.4 46.4-42.6 65.8-7.4 8.9-20.2 11.1-30.3 5.3l-29.1-16.8c-16 13.7-34.6 24.6-54.9 31.7v33.6c0 11.6-8.3 21.6-19.7 23.6-24.6 4.2-50.4 4.4-75.9 0-11.5-2-20-11.9-20-23.6V418c-20.3-7.2-38.9-18-54.9-31.7L74 403c-10 5.8-22.9 3.6-30.3-5.3-16.2-19.4-33.3-41.6-42.2-65.7-4-10.9.4-23.2 10.5-29.1l33.3-16.8c-3.9-20.9-3.9-42.4 0-63.4L12 205.8c-10.1-5.8-14.6-18.1-10.5-29 8.9-24.2 26-46.4 42.2-65.8 7.4-8.9 20.2-11.1 30.3-5.3l29.1 16.8c16-13.7 34.6-24.6 54.9-31.7V57.1c0-11.5 8.2-21.5 19.6-23.5 24.6-4.2 50.5-4.4 76-.1 11.5 2 20 11.9 20 23.6v33.6c20.3 7.2 38.9 18 54.9 31.7l29.1-16.8c10-5.8 22.9-3.6 30.3 5.3 16.2 19.4 33.2 41.6 42.1 65.8 4 10.9.1 23.2-10 29.1l-33.7 16.8c3.9 21 3.9 42.5 0 63.5zm-117.6 21.1c59.2-77-28.7-164.9-105.7-105.7-59.2 77 28.7 164.9 105.7 105.7zm243.4 182.7l-8.2 14.3c-3 5.3-9.4 7.5-15.1 5.4-11.8-4.4-22.6-10.7-32.1-18.6-4.6-3.8-5.8-10.5-2.8-15.7l8.2-14.3c-6.9-8-12.3-17.3-15.9-27.4h-16.5c-6 0-11.2-4.3-12.2-10.3-2-12-2.1-24.6 0-37.1 1-6 6.2-10.4 12.2-10.4h16.5c3.6-10.1 9-19.4 15.9-27.4l-8.2-14.3c-3-5.2-1.9-11.9 2.8-15.7 9.5-7.9 20.4-14.2 32.1-18.6 5.7-2.1 12.1.1 15.1 5.4l8.2 14.3c10.5-1.9 21.2-1.9 31.7 0l8.2-14.3c3-5.3 9.4-7.5 15.1-5.4 11.8 4.4 22.6 10.7 32.1 18.6 4.6 3.8 5.8 10.5 2.8 15.7l-8.2 14.3c6.9 8 12.3 17.3 15.9 27.4h16.5c6 0 11.2 4.3 12.2 10.3 2 12 2.1 24.6 0 37.1-1 6-6.2 10.4-12.2 10.4h-16.5c-3.6 10.1-9 19.4-15.9 27.4l8.2 14.3c3 5.2 1.9 11.9-2.8 15.7-9.5 7.9-20.4 14.2-32.1 18.6-5.7 2.1-12.1-.1-15.1-5.4l-8.2-14.3c-10.4 1.9-21.2 1.9-31.7 0zM501.6 431c38.5 29.6 82.4-14.3 52.8-52.8-38.5-29.6-82.4 14.3-52.8 52.8z"></path>
  </svg>
  <svg xmlns="http://www.w3.org/2000/svg" viewBox="0 0 448 512" width="18" height="18" fill="#fff" x="309" y="628" opacity="100%">
    <path d="M224 256c70.7 0 128-57.3 128-128S294.7 0 224 0 96 57.3 96 128s57.3 128 128 128zm89.6 32h-16.7c-22.2 10.2-46.9 16-72.9 16s-50.6-5.8-72.9-16h-16.7C60.2 288 0 348.2 0 422.4V464c0 26.5 21.5 48 48 48h352c26.5 0 48-21.5 48-48v-41.6c0-74.2-60.2-134.4-134.4-134.4z"></path>
  </svg>
  <defs>
    <filter id="filter_dshadow_6_0_4_0000001a" color-interpolation-filters="sRGB" filterUnits="userSpaceOnUse">
      <feFlood flood-opacity="0" result="bg-fix"></feFlood>
      <feColorMatrix in="SourceAlpha" type="matrix" values="0 0 0 0 0 0 0 0 0 0 0 0 0 0 0 0 0 0 127 0" result="alpha"></feColorMatrix>
      <feOffset dx="0" dy="4"></feOffset>
      <feGaussianBlur stdDeviation="3"></feGaussianBlur>
      <feComposite in2="alpha" operator="out"></feComposite>
      <feColorMatrix type="matrix" values="0 0 0 0 0 0 0 0 0 0 0 0 0 0 0 0 0 0 0.1 0"></feColorMatrix>
      <feBlend mode="normal" in2="bg-fix" result="bg-fix-filter_dshadow_6_0_4_0000001a"></feBlend>
      <feBlend in="SourceGraphic" in2="bg-fix-filter_dshadow_6_0_4_0000001a" result="shape"></feBlend>
    </filter>
    <style id="google">@import url(https://fonts.googleapis.com/css2?family=Poppins:ital,wght@0,100;0,200;0,300;0,400;0,500;0,600;0,700;0,800;0,900;1,100;1,200;1,300;1,400;1,500;1,600;1,700;1,800;1,900&amp;display=swap);
</style>
    <style id="brand"></style>
  </defs>
</svg>